<?xml version="1.0" encoding="UTF-8"?>
<svg xmlns="http://www.w3.org/2000/svg" xmlns:xlink="http://www.w3.org/1999/xlink" width="34px" height="31px" viewBox="0 0 31 31" version="1.1">
<g id="surface1">
<path style=" stroke:none;fill-rule:nonzero;fill:rgb(94.901961%,90.196079%,78.823531%);fill-opacity:1;" d="M 7.375 2.996094 C 9.386719 2.980469 11.402344 2.996094 13.417969 2.992188 C 12.9375 5.042969 12.480469 7.109375 12.007812 9.167969 C 8.9375 9.167969 5.871094 9.167969 2.808594 9.167969 C 2.519531 9.167969 2.226562 9.171875 1.9375 9.15625 C 3.742188 7.097656 5.570312 5.054688 7.375 2.996094 Z M 7.375 2.996094 "/>
<path style=" stroke:none;fill-rule:nonzero;fill:rgb(94.901961%,90.196079%,78.823531%);fill-opacity:1;" d="M 17.59375 2.992188 C 19.605469 2.992188 21.609375 2.992188 23.621094 2.992188 C 25.429688 5.050781 27.257812 7.089844 29.0625 9.15625 C 27.898438 9.179688 26.738281 9.15625 25.574219 9.167969 C 23.378906 9.167969 21.183594 9.167969 18.992188 9.167969 C 18.535156 7.101562 18.050781 5.050781 17.59375 2.992188 Z M 17.59375 2.992188 "/>
<path style=" stroke:none;fill-rule:nonzero;fill:rgb(93.725491%,78.039217%,36.862746%);fill-opacity:1;" d="M 13.417969 2.992188 C 14.808594 2.992188 16.203125 2.992188 17.59375 2.992188 C 18.050781 5.050781 18.535156 7.101562 18.992188 9.160156 C 16.664062 9.160156 14.332031 9.160156 12.007812 9.160156 C 12.480469 7.109375 12.9375 5.042969 13.417969 2.992188 Z M 13.417969 2.992188 "/>
<path style=" stroke:none;fill-rule:nonzero;fill:rgb(90.588236%,74.901962%,33.333334%);fill-opacity:1;" d="M 1.9375 9.15625 C 2.226562 9.171875 2.519531 9.160156 2.808594 9.167969 C 5.871094 9.167969 8.9375 9.167969 12.007812 9.167969 C 12.007812 11.339844 12.007812 13.515625 12.011719 15.6875 C 12.089844 15.699219 12.175781 15.707031 12.261719 15.707031 C 14.433594 15.707031 16.613281 15.707031 18.792969 15.707031 C 18.855469 15.707031 18.921875 15.699219 18.988281 15.695312 C 19.003906 13.515625 18.988281 11.339844 18.992188 9.160156 C 21.191406 9.160156 23.382812 9.160156 25.574219 9.160156 C 26.738281 9.15625 27.898438 9.179688 29.0625 9.15625 C 29.0625 15.441406 29.0625 21.722656 29.0625 28.007812 C 20.023438 28.007812 10.976562 28.007812 1.9375 28.007812 C 1.9375 21.722656 1.9375 15.441406 1.9375 9.15625 Z M 1.9375 9.15625 "/>
<path style=" stroke:none;fill-rule:nonzero;fill:rgb(85.882354%,70.980394%,31.764707%);fill-opacity:1;" d="M 12.007812 9.167969 C 14.332031 9.167969 16.664062 9.167969 18.992188 9.167969 C 18.988281 11.339844 19.003906 13.519531 18.988281 15.695312 C 18.921875 15.707031 18.855469 15.707031 18.792969 15.710938 C 16.613281 15.710938 14.433594 15.710938 12.261719 15.710938 C 12.175781 15.710938 12.097656 15.707031 12.011719 15.695312 C 12 13.515625 12.011719 11.339844 12.007812 9.167969 Z M 12.007812 9.167969 "/>
<path style=" stroke:none;fill-rule:nonzero;fill:rgb(94.901961%,94.901961%,94.901961%);fill-opacity:1;" d="M 3.917969 21.875 L 12.992188 21.875 L 12.992188 25.371094 L 3.917969 25.371094 Z M 3.917969 21.875 "/>
</g>
</svg>
